<svg xmlns="http://www.w3.org/2000/svg" viewBox="0 0 101 101"><path d="M33.2 41.9h34.7c1.3 0 2.4-1.1 2.4-2.4 0-1.3-1.1-2.4-2.4-2.4H33.2c-1.3 0-2.4 1.1-2.4 2.4 0 1.3 1 2.4 2.4 2.4zM33.2 53.6h34.7c1.3 0 2.4-1.1 2.4-2.4 0-1.3-1.1-2.4-2.4-2.4H33.2c-1.3 0-2.4 1.1-2.4 2.4 0 1.3 1 2.4 2.4 2.4z"/><path d="M82.2 21.6H18.8c-1.3 0-2.4 1.1-2.4 2.4v42.7c0 1.3 1.1 2.4 2.4 2.4h7.7V77c0 .9.5 1.7 1.3 2.2.3.2.7.2 1.1.2.5 0 1-.2 1.5-.5l12.9-9.8h38.9c1.3 0 2.4-1.1 2.4-2.4V24c0-1.3-1.1-2.4-2.4-2.4zm-2.4 42.7H42.5c-.5 0-1 .2-1.5.5l-9.7 7.4v-5.5c0-1.3-1.1-2.4-2.4-2.4h-7.7V26.4h58.6v37.9z"/></svg>