<svg xmlns="http://www.w3.org/2000/svg" fill-rule="evenodd" stroke-linejoin="round" stroke-miterlimit="2" clip-rule="evenodd" viewBox="0 0 24 24"><g transform="translate(0 -48)"><circle cx="12" cy="60" r="9.75" fill="#ede63c"/><path fill="#353535" d="M8.329,15.335C8.329,15.335 9.563,17.75 12,17.75C14.437,17.75 15.671,15.335 15.671,15.335C15.856,14.965 15.706,14.514 15.335,14.329C14.965,14.144 14.514,14.294 14.329,14.665C14.329,14.665 13.563,16.25 12,16.25C10.437,16.25 9.671,14.665 9.671,14.665C9.486,14.294 9.035,14.144 8.665,14.329C8.294,14.514 8.144,14.965 8.329,15.335Z" transform="translate(0 48)"/><path fill="#353535" d="M8.491,57.971C8.743,57.747 8.888,57.604 8.888,57.604C8.959,57.569 9.041,57.569 9.112,57.604C9.112,57.604 9.298,57.767 9.513,57.981C9.868,58.336 10.474,58.161 10.67,57.728C10.874,57.277 10.644,56.986 10.363,56.718C10.153,56.518 10.029,56.406 9.783,56.259C9.44,56.055 8.7,55.993 8.217,56.259C7.906,56.431 7.75,56.606 7.547,56.804C7.262,57.083 7.13,57.412 7.351,57.796C7.551,58.145 8.103,58.313 8.491,57.971Z" transform="translate(6.006 .16)"/><path fill="#353535" d="M8.491,57.971C8.743,57.747 8.888,57.604 8.888,57.604C8.959,57.569 9.041,57.569 9.112,57.604C9.112,57.604 9.298,57.767 9.513,57.981C9.868,58.336 10.474,58.161 10.67,57.728C10.874,57.277 10.644,56.986 10.363,56.718C10.153,56.518 10.029,56.406 9.783,56.259C9.44,56.055 8.7,55.993 8.217,56.259C7.906,56.431 7.75,56.606 7.547,56.804C7.262,57.083 7.13,57.412 7.351,57.796C7.551,58.145 8.103,58.313 8.491,57.971Z" transform="translate(.006 .16)"/></g></svg>