<svg xmlns="http://www.w3.org/2000/svg" width="24" height="24" fill="none" viewBox="0 0 24 24"><path fill="#000" fill-rule="evenodd" d="M12 2.5C6.75329 2.5 2.5 6.75329 2.5 12C2.5 17.2467 6.75329 21.5 12 21.5C17.2467 21.5 21.5 17.2467 21.5 12C21.5 6.75329 17.2467 2.5 12 2.5ZM1.5 12C1.5 6.20101 6.20101 1.5 12 1.5C17.799 1.5 22.5 6.20101 22.5 12C22.5 17.799 17.799 22.5 12 22.5C6.20101 22.5 1.5 17.799 1.5 12Z" clip-rule="evenodd"/><path fill="#000" fill-rule="evenodd" d="M8 8C7.44772 8 7 8.44772 7 9 7 9.55228 7.44772 10 8 10 8.55228 10 9 9.55228 9 9 9 8.44772 8.55228 8 8 8zM6 9C6 7.89543 6.89543 7 8 7 9.10457 7 10 7.89543 10 9 10 10.1046 9.10457 11 8 11 6.89543 11 6 10.1046 6 9zM16 8C15.4477 8 15 8.44772 15 9 15 9.55228 15.4477 10 16 10 16.5523 10 17 9.55228 17 9 17 8.44772 16.5523 8 16 8zM14 9C14 7.89543 14.8954 7 16 7 17.1046 7 18 7.89543 18 9 18 10.1046 17.1046 11 16 11 14.8954 11 14 10.1046 14 9zM8.5 14C8.5 15.933 10.067 17.5 12 17.5 13.933 17.5 15.5 15.933 15.5 14H16.5C16.5 16.4853 14.4853 18.5 12 18.5 9.51472 18.5 7.5 16.4853 7.5 14H8.5z" clip-rule="evenodd"/></svg>